<?xml version="1.0" encoding="UTF-8" standalone="no"?>
<!-- Created with Inkscape (http://www.inkscape.org/) -->

<svg
   width="47.728085mm"
   height="34.737991mm"
   viewBox="0 0 47.728085 34.737991"
   version="1.1"
   id="svg1"
   xmlns:inkscape="http://www.inkscape.org/namespaces/inkscape"
   xmlns:sodipodi="http://sodipodi.sourceforge.net/DTD/sodipodi-0.dtd"
   xmlns="http://www.w3.org/2000/svg"
   xmlns:svg="http://www.w3.org/2000/svg">
  <sodipodi:namedview
     id="namedview1"
     pagecolor="#505050"
     bordercolor="#ffffff"
     borderopacity="1"
     inkscape:showpageshadow="0"
     inkscape:pageopacity="0"
     inkscape:pagecheckerboard="1"
     inkscape:deskcolor="#505050"
     inkscape:document-units="mm">
    <inkscape:page
       x="4.8595629e-41"
       y="0"
       width="47.728085"
       height="34.737991"
       id="page2"
       margin="0"
       bleed="0" />
  </sodipodi:namedview>
  <defs
     id="defs1" />
  <g
     inkscape:label="Vrstva 1"
     inkscape:groupmode="layer"
     id="layer1"
     transform="translate(-0.21443752,-0.77458932)">
    <g
       id="g155"
       transform="matrix(0.26458333,0,0,0.26458333,-228.51557,-228.98651)">
		<path
   fill="#2b2d2d"
   d="m 959.415,870.5 c -0.713,-0.4 -1.587,-0.383 -2.282,0.043 l -50.587,30.973 h -37.974 c -1.246,0 -2.257,1.012 -2.257,2.258 v 60.521 c 0,1.246 1.011,2.258 2.257,2.258 h 37.974 l 50.587,30.973 c 0.36,0.221 0.77,0.332 1.179,0.332 0.381,0 0.761,-0.096 1.104,-0.289 0.713,-0.398 1.153,-1.152 1.153,-1.969 V 872.469 c -10e-4,-0.817 -0.441,-1.571 -1.154,-1.969 z"
   id="path152"
   style="fill:#2e2e42;fill-opacity:1;stroke:#ea2a2a;stroke-width:3.64724;stroke-dasharray:none;stroke-opacity:1" />

		<path
   fill="#2b2d2d"
   d="m 982.284,907.289 c -0.882,0.883 -0.882,2.311 10e-4,3.191 6.294,6.293 9.759,14.658 9.759,23.557 0,8.896 -3.464,17.26 -9.754,23.551 -0.882,0.881 -0.882,2.311 0,3.191 0.441,0.439 1.018,0.66 1.596,0.66 0.578,0 1.155,-0.221 1.597,-0.66 7.143,-7.143 11.076,-16.641 11.076,-26.742 0,-10.105 -3.937,-19.604 -11.084,-26.748 -0.88,-0.881 -2.311,-0.881 -3.191,0 z"
   id="path153"
   style="fill:#ea2a2a;fill-opacity:1" />

		<path
   fill="#2b2d2d"
   d="m 1001.939,890.807 c -0.882,-0.881 -2.312,-0.879 -3.191,0.002 -0.881,0.881 -0.88,2.311 10e-4,3.191 10.703,10.693 16.596,24.914 16.596,40.041 0,15.121 -5.889,29.336 -16.58,40.027 -0.881,0.881 -0.881,2.311 0,3.193 0.441,0.439 1.019,0.66 1.597,0.66 0.578,0 1.155,-0.221 1.597,-0.66 11.544,-11.545 17.9,-26.895 17.9,-43.221 0,-16.333 -6.365,-31.688 -17.92,-43.233 z"
   id="path154"
   style="fill:#ea2a2a;fill-opacity:1" />

		<path
   fill="#2b2d2d"
   d="m 1019.209,873.426 c -0.885,-0.881 -2.313,-0.877 -3.192,0.004 -0.881,0.883 -0.878,2.313 0,3.193 15.379,15.332 23.85,35.738 23.85,57.455 0,21.672 -8.439,42.047 -23.764,57.369 -0.881,0.883 -0.881,2.313 0,3.193 0.441,0.439 1.019,0.66 1.597,0.66 0.578,0 1.154,-0.221 1.596,-0.66 16.176,-16.178 25.085,-37.684 25.085,-60.563 -10e-4,-22.925 -8.943,-44.466 -25.177,-60.651 z"
   id="path155"
   style="fill:#ea2a2a;fill-opacity:1;stroke:#ea2a2a;stroke-opacity:1" />

	</g>
  </g>
</svg>
