<?xml version="1.0" encoding="UTF-8" standalone="no"?>
<!-- Created with Inkscape (http://www.inkscape.org/) -->

<svg
   width="39.813225mm"
   height="34.685902mm"
   viewBox="0 0 39.813225 34.685901"
   version="1.1"
   id="svg1"
   sodipodi:docname="unmute.svg"
   xmlns:inkscape="http://www.inkscape.org/namespaces/inkscape"
   xmlns:sodipodi="http://sodipodi.sourceforge.net/DTD/sodipodi-0.dtd"
   xmlns="http://www.w3.org/2000/svg"
   xmlns:svg="http://www.w3.org/2000/svg">
  <sodipodi:namedview
     id="namedview1"
     pagecolor="#505050"
     bordercolor="#ffffff"
     borderopacity="1"
     inkscape:showpageshadow="0"
     inkscape:pageopacity="0"
     inkscape:pagecheckerboard="1"
     inkscape:deskcolor="#505050"
     inkscape:document-units="mm">
    <inkscape:page
       x="0"
       y="1.845544e-22"
       width="39.813225"
       height="34.685902"
       id="page1"
       margin="0"
       bleed="0" />
  </sodipodi:namedview>
  <defs
     id="defs1" />
  <g
     inkscape:label="Vrstva 1"
     inkscape:groupmode="layer"
     id="layer1"
     transform="translate(-0.24161937,-0.50301424)">
    <g
       id="g155"
       transform="matrix(0.22069567,0,0,0.26234167,-190.54587,-227.07131)"
       inkscape:export-filename="unmute.svg"
       inkscape:export-xdpi="96"
       inkscape:export-ydpi="96">
      <path
         fill="#2b2d2d"
         d="m 969.45764,870.5854 c -0.78926,-0.39946 -1.75674,-0.38249 -2.52608,0.0429 l -55.99781,30.93137 h -42.03571 c -1.37928,0 -2.49841,1.01064 -2.49841,2.25496 v 60.43966 c 0,1.24432 1.11913,2.25496 2.49841,2.25496 h 42.03571 l 55.99781,30.93137 c 0.39851,0.2207 0.85236,0.33155 1.30511,0.33155 0.42175,0 0.84239,-0.0959 1.22208,-0.28861 0.78926,-0.39746 1.27633,-1.15045 1.27633,-1.96635 v -122.9655 c -0.001,-0.8159 -0.48817,-1.56889 -1.27744,-1.96635 z"
         id="path152"
         style="fill:#2e2e42;fill-opacity:1;stroke:#ea2a2a;stroke-width:3.83476;stroke-dasharray:none;stroke-opacity:1" />
      <path
         fill="#2b2d2d"
         d="m 1001.939,890.807 c -0.882,-0.881 -2.312,-0.879 -3.191,0.002 -0.881,0.881 -0.88,2.311 10e-4,3.191 10.703,10.693 16.596,24.914 16.596,40.041 0,15.121 -5.889,29.336 -16.58,40.027 -0.881,0.881 -0.881,2.311 0,3.193 0.441,0.439 1.019,0.66 1.597,0.66 0.578,0 1.155,-0.221 1.597,-0.66 11.544,-11.545 17.9,-26.895 17.9,-43.221 0,-16.333 -6.365,-31.688 -17.92,-43.233 z"
         id="path154"
         style="fill:#ea2a2a;fill-opacity:1" />
      <path
         fill="#2b2d2d"
         d="m 1019.209,873.426 c -0.885,-0.881 -2.313,-0.877 -3.192,0.004 -0.881,0.883 -0.878,2.313 0,3.193 15.379,15.332 23.85,35.738 23.85,57.455 0,21.672 -8.439,42.047 -23.764,57.369 -0.881,0.883 -0.881,2.313 0,3.193 0.441,0.439 1.019,0.66 1.597,0.66 0.578,0 1.154,-0.221 1.596,-0.66 16.176,-16.178 25.085,-37.684 25.085,-60.563 -10e-4,-22.925 -8.943,-44.466 -25.177,-60.651 z"
         id="path155"
         style="fill:#ea2a2a;fill-opacity:1;stroke:#ea2a2a;stroke-opacity:1" />
    </g>
  </g>
</svg>
