<?xml version="1.0" encoding="UTF-8" standalone="no"?>
<!-- Created with Inkscape (http://www.inkscape.org/) -->

<svg
   width="39.743053mm"
   height="34.360931mm"
   viewBox="0 0 39.743054 34.360931"
   version="1.1"
   id="svg1"
   sodipodi:docname="volume_up.svg"
   xmlns:inkscape="http://www.inkscape.org/namespaces/inkscape"
   xmlns:sodipodi="http://sodipodi.sourceforge.net/DTD/sodipodi-0.dtd"
   xmlns="http://www.w3.org/2000/svg"
   xmlns:svg="http://www.w3.org/2000/svg">
  <sodipodi:namedview
     id="namedview1"
     pagecolor="#505050"
     bordercolor="#ffffff"
     borderopacity="1"
     inkscape:showpageshadow="0"
     inkscape:pageopacity="0"
     inkscape:pagecheckerboard="1"
     inkscape:deskcolor="#505050"
     inkscape:document-units="mm">
    <inkscape:page
       x="0"
       y="0"
       width="39.743053"
       height="34.360931"
       id="page1"
       margin="0"
       bleed="0" />
  </sodipodi:namedview>
  <defs
     id="defs1" />
  <g
     inkscape:label="Vrstva 1"
     inkscape:groupmode="layer"
     id="layer1"
     transform="translate(-108.80911,-100.83326)">
    <g
       id="g190"
       style="display:inline"
       transform="matrix(0.24120909,0,0,0.26173866,-165.85664,-126.45935)">
      <g
         id="g188"
         style="fill:#2d3043;fill-opacity:1;stroke:#ea2a2a;stroke-width:3.64724;stroke-dasharray:none;stroke-opacity:1"
         transform="matrix(1.0077152,0,0,0.99989595,-8.7927835,0.09718357)">
        <path
           fill="#2b2d2d"
           d="m 1233.635,870.5 c -0.713,-0.4 -1.587,-0.383 -2.282,0.043 l -50.587,30.973 h -37.974 c -1.246,0 -2.257,1.012 -2.257,2.258 v 60.521 c 0,1.246 1.011,2.258 2.257,2.258 h 37.974 l 50.587,30.973 c 0.36,0.221 0.77,0.332 1.179,0.332 0.38,0 0.76,-0.096 1.104,-0.289 0.712,-0.398 1.153,-1.152 1.153,-1.969 V 872.469 c -10e-4,-0.817 -0.442,-1.571 -1.154,-1.969 z"
           id="path187"
           style="fill:#2d3043;fill-opacity:1;stroke:#ea2a2a;stroke-width:3.64724;stroke-dasharray:none;stroke-opacity:1" />
      </g>
      <g
         id="g189"
         style="fill:#000000;fill-opacity:1;stroke:#ea2a2a;stroke-opacity:1">
        <line
           fill="none"
           stroke="#2b2d2d"
           stroke-width="5.5979"
           stroke-linecap="round"
           stroke-linejoin="round"
           stroke-miterlimit="10"
           x1="1277.521"
           y1="910.88501"
           x2="1277.521"
           y2="957.18402"
           id="line188"
           style="fill:#000000;fill-opacity:1;stroke:#ea2a2a;stroke-opacity:1" />
        <line
           fill="none"
           stroke="#2b2d2d"
           stroke-width="5.5979"
           stroke-linecap="round"
           stroke-linejoin="round"
           stroke-miterlimit="10"
           x1="1300.671"
           y1="934.03302"
           x2="1254.371"
           y2="934.03302"
           id="line189"
           style="fill:#000000;fill-opacity:1;stroke:#ea2a2a;stroke-opacity:1" />
      </g>
    </g>
  </g>
</svg>
